<svg xmlns="http://www.w3.org/2000/svg" viewBox="0 0 760 360" role="img" aria-label="Share of accurate / edited / rewritten per week" font-family="-apple-system, system-ui, sans-serif" font-size="12">
<rect width="760" height="360" fill="#ffffff"/>
<text x="60" y="22" font-weight="600" font-size="14" fill="#111">Share of stories per editorial category, per week</text>
<rect x="60" y="33" width="12" height="12" fill="#16a34a"/>
<text x="78" y="43" fill="#374151">accurate (<=5% changed)</text>
<rect x="284" y="33" width="12" height="12" fill="#f59e0b"/>
<text x="302" y="43" fill="#374151">edited (5-40%)</text>
<rect x="436" y="33" width="12" height="12" fill="#dc2626"/>
<text x="454" y="43" fill="#374151">rewritten (>40%)</text>
<line x1="60" y1="300.0" x2="736" y2="300.0" stroke="#e5e7eb" stroke-width="1"/>
<text x="52" y="304.0" text-anchor="end" fill="#6b7280">0%</text>
<line x1="60" y1="240.0" x2="736" y2="240.0" stroke="#e5e7eb" stroke-width="1"/>
<text x="52" y="244.0" text-anchor="end" fill="#6b7280">25%</text>
<line x1="60" y1="180.0" x2="736" y2="180.0" stroke="#e5e7eb" stroke-width="1"/>
<text x="52" y="184.0" text-anchor="end" fill="#6b7280">50%</text>
<line x1="60" y1="120.0" x2="736" y2="120.0" stroke="#e5e7eb" stroke-width="1"/>
<text x="52" y="124.0" text-anchor="end" fill="#6b7280">75%</text>
<line x1="60" y1="60.0" x2="736" y2="60.0" stroke="#e5e7eb" stroke-width="1"/>
<text x="52" y="64.0" text-anchor="end" fill="#6b7280">100%</text>
<rect x="60.0" y="273.3" width="36.6" height="26.7" fill="#16a34a"/>
<rect x="60.0" y="166.7" width="36.6" height="106.7" fill="#f59e0b"/>
<rect x="60.0" y="60.0" width="36.6" height="106.7" fill="#dc2626"/>
<text x="78.3" y="316" text-anchor="middle" fill="#374151">W04</text>
<text x="78.3" y="332" text-anchor="middle" fill="#9ca3af" font-size="10">n=54</text>
<rect x="102.6" y="280.0" width="36.6" height="20.0" fill="#16a34a"/>
<rect x="102.6" y="160.0" width="36.6" height="120.0" fill="#f59e0b"/>
<rect x="102.6" y="60.0" width="36.6" height="100.0" fill="#dc2626"/>
<text x="120.9" y="316" text-anchor="middle" fill="#374151">W05</text>
<text x="120.9" y="332" text-anchor="middle" fill="#9ca3af" font-size="10">n=48</text>
<rect x="145.2" y="274.3" width="36.6" height="25.7" fill="#16a34a"/>
<rect x="145.2" y="154.3" width="36.6" height="120.0" fill="#f59e0b"/>
<rect x="145.2" y="60.0" width="36.6" height="94.3" fill="#dc2626"/>
<text x="163.6" y="316" text-anchor="middle" fill="#374151">W06</text>
<text x="163.6" y="332" text-anchor="middle" fill="#9ca3af" font-size="10">n=56</text>
<rect x="187.9" y="284.0" width="36.6" height="16.0" fill="#16a34a"/>
<rect x="187.9" y="166.7" width="36.6" height="117.3" fill="#f59e0b"/>
<rect x="187.9" y="60.0" width="36.6" height="106.7" fill="#dc2626"/>
<text x="206.2" y="316" text-anchor="middle" fill="#374151">W07</text>
<text x="206.2" y="332" text-anchor="middle" fill="#9ca3af" font-size="10">n=45</text>
<rect x="230.5" y="293.7" width="36.6" height="6.3" fill="#16a34a"/>
<rect x="230.5" y="186.3" width="36.6" height="107.4" fill="#f59e0b"/>
<rect x="230.5" y="60.0" width="36.6" height="126.3" fill="#dc2626"/>
<text x="248.8" y="316" text-anchor="middle" fill="#374151">W08</text>
<text x="248.8" y="332" text-anchor="middle" fill="#9ca3af" font-size="10">n=38</text>
<rect x="273.1" y="270.0" width="36.6" height="30.0" fill="#16a34a"/>
<rect x="273.1" y="240.0" width="36.6" height="30.0" fill="#f59e0b"/>
<rect x="273.1" y="60.0" width="36.6" height="180.0" fill="#dc2626"/>
<text x="291.4" y="316" text-anchor="middle" fill="#374151">W09</text>
<text x="291.4" y="332" text-anchor="middle" fill="#9ca3af" font-size="10">n=48</text>
<rect x="315.8" y="282.5" width="36.6" height="17.5" fill="#16a34a"/>
<rect x="315.8" y="247.6" width="36.6" height="34.9" fill="#f59e0b"/>
<rect x="315.8" y="60.0" width="36.6" height="187.6" fill="#dc2626"/>
<text x="334.1" y="316" text-anchor="middle" fill="#374151">W10</text>
<text x="334.1" y="332" text-anchor="middle" fill="#9ca3af" font-size="10">n=55</text>
<rect x="358.4" y="287.8" width="36.6" height="12.2" fill="#16a34a"/>
<rect x="358.4" y="283.7" width="36.6" height="4.1" fill="#f59e0b"/>
<rect x="358.4" y="60.0" width="36.6" height="223.7" fill="#dc2626"/>
<text x="376.7" y="316" text-anchor="middle" fill="#374151">W11</text>
<text x="376.7" y="332" text-anchor="middle" fill="#9ca3af" font-size="10">n=59</text>
<rect x="401.0" y="287.8" width="36.6" height="12.2" fill="#16a34a"/>
<rect x="401.0" y="283.7" width="36.6" height="4.1" fill="#f59e0b"/>
<rect x="401.0" y="60.0" width="36.6" height="223.7" fill="#dc2626"/>
<text x="419.3" y="316" text-anchor="middle" fill="#374151">W12</text>
<text x="419.3" y="332" text-anchor="middle" fill="#9ca3af" font-size="10">n=59</text>
<rect x="443.6" y="295.3" width="36.6" height="4.7" fill="#16a34a"/>
<rect x="443.6" y="262.4" width="36.6" height="32.9" fill="#f59e0b"/>
<rect x="443.6" y="60.0" width="36.6" height="202.4" fill="#dc2626"/>
<text x="461.9" y="316" text-anchor="middle" fill="#374151">W13</text>
<text x="461.9" y="332" text-anchor="middle" fill="#9ca3af" font-size="10">n=51</text>
<rect x="486.2" y="257.1" width="36.6" height="42.9" fill="#16a34a"/>
<rect x="486.2" y="235.7" width="36.6" height="21.4" fill="#f59e0b"/>
<rect x="486.2" y="60.0" width="36.6" height="175.7" fill="#dc2626"/>
<text x="504.6" y="316" text-anchor="middle" fill="#374151">W14</text>
<text x="504.6" y="332" text-anchor="middle" fill="#9ca3af" font-size="10">n=56</text>
<rect x="528.9" y="236.3" width="36.6" height="63.7" fill="#16a34a"/>
<rect x="528.9" y="211.8" width="36.6" height="24.5" fill="#f59e0b"/>
<rect x="528.9" y="60.0" width="36.6" height="151.8" fill="#dc2626"/>
<text x="547.2" y="316" text-anchor="middle" fill="#374151">W15</text>
<text x="547.2" y="332" text-anchor="middle" fill="#9ca3af" font-size="10">n=49</text>
<rect x="571.5" y="169.1" width="36.6" height="130.9" fill="#16a34a"/>
<rect x="571.5" y="64.4" width="36.6" height="104.7" fill="#f59e0b"/>
<rect x="571.5" y="60.0" width="36.6" height="4.4" fill="#dc2626"/>
<text x="589.8" y="316" text-anchor="middle" fill="#374151">W16</text>
<text x="589.8" y="332" text-anchor="middle" fill="#9ca3af" font-size="10">n=55</text>
<rect x="614.1" y="166.2" width="36.6" height="133.8" fill="#16a34a"/>
<rect x="614.1" y="64.6" width="36.6" height="101.5" fill="#f59e0b"/>
<rect x="614.1" y="60.0" width="36.6" height="4.6" fill="#dc2626"/>
<text x="632.4" y="316" text-anchor="middle" fill="#374151">W17</text>
<text x="632.4" y="332" text-anchor="middle" fill="#9ca3af" font-size="10">n=52</text>
<rect x="656.8" y="176.1" width="36.6" height="123.9" fill="#16a34a"/>
<rect x="656.8" y="75.5" width="36.6" height="100.6" fill="#f59e0b"/>
<rect x="656.8" y="60.0" width="36.6" height="15.5" fill="#dc2626"/>
<text x="675.1" y="316" text-anchor="middle" fill="#374151">W18</text>
<text x="675.1" y="332" text-anchor="middle" fill="#9ca3af" font-size="10">n=62</text>
<rect x="699.4" y="149.4" width="36.6" height="150.6" fill="#16a34a"/>
<rect x="699.4" y="74.1" width="36.6" height="75.3" fill="#f59e0b"/>
<rect x="699.4" y="60.0" width="36.6" height="14.1" fill="#dc2626"/>
<text x="717.7" y="316" text-anchor="middle" fill="#374151">W19</text>
<text x="717.7" y="332" text-anchor="middle" fill="#9ca3af" font-size="10">n=51</text>
<line x1="60" y1="300" x2="736" y2="300" stroke="#9ca3af"/>
</svg>
