<svg xmlns="http://www.w3.org/2000/svg" viewBox="0 0 760 360" role="img" aria-label="Share of accurate / edited / rewritten per week" font-family="-apple-system, system-ui, sans-serif" font-size="12">
<rect width="760" height="360" fill="#ffffff"/>
<text x="60" y="22" font-weight="600" font-size="14" fill="#111">Share of stories per editorial category, per week</text>
<rect x="60" y="33" width="12" height="12" fill="#16a34a"/>
<text x="78" y="43" fill="#374151">accurate (&lt;=5% changed)</text>
<rect x="308" y="33" width="12" height="12" fill="#f59e0b"/>
<text x="326" y="43" fill="#374151">edited (5-40%)</text>
<rect x="460" y="33" width="12" height="12" fill="#dc2626"/>
<text x="478" y="43" fill="#374151">rewritten (&gt;40%)</text>
<line x1="60" y1="300.0" x2="736" y2="300.0" stroke="#e5e7eb" stroke-width="1"/>
<text x="52" y="304.0" text-anchor="end" fill="#6b7280">0%</text>
<line x1="60" y1="240.0" x2="736" y2="240.0" stroke="#e5e7eb" stroke-width="1"/>
<text x="52" y="244.0" text-anchor="end" fill="#6b7280">25%</text>
<line x1="60" y1="180.0" x2="736" y2="180.0" stroke="#e5e7eb" stroke-width="1"/>
<text x="52" y="184.0" text-anchor="end" fill="#6b7280">50%</text>
<line x1="60" y1="120.0" x2="736" y2="120.0" stroke="#e5e7eb" stroke-width="1"/>
<text x="52" y="124.0" text-anchor="end" fill="#6b7280">75%</text>
<line x1="60" y1="60.0" x2="736" y2="60.0" stroke="#e5e7eb" stroke-width="1"/>
<text x="52" y="64.0" text-anchor="end" fill="#6b7280">100%</text>
<rect x="60.0" y="236.3" width="36.6" height="63.7" fill="#16a34a"/>
<rect x="60.0" y="211.8" width="36.6" height="24.5" fill="#f59e0b"/>
<rect x="60.0" y="60.0" width="36.6" height="151.8" fill="#dc2626"/>
<text x="78.3" y="316" text-anchor="middle" fill="#374151">W15</text>
<text x="78.3" y="332" text-anchor="middle" fill="#9ca3af" font-size="10">n=49</text>
<rect x="102.6" y="169.1" width="36.6" height="130.9" fill="#16a34a"/>
<rect x="102.6" y="64.4" width="36.6" height="104.7" fill="#f59e0b"/>
<rect x="102.6" y="60.0" width="36.6" height="4.4" fill="#dc2626"/>
<text x="120.9" y="316" text-anchor="middle" fill="#374151">W16</text>
<text x="120.9" y="332" text-anchor="middle" fill="#9ca3af" font-size="10">n=55</text>
<rect x="145.2" y="166.2" width="36.6" height="133.8" fill="#16a34a"/>
<rect x="145.2" y="64.6" width="36.6" height="101.5" fill="#f59e0b"/>
<rect x="145.2" y="60.0" width="36.6" height="4.6" fill="#dc2626"/>
<text x="163.6" y="316" text-anchor="middle" fill="#374151">W17</text>
<text x="163.6" y="332" text-anchor="middle" fill="#9ca3af" font-size="10">n=52</text>
<rect x="187.9" y="176.1" width="36.6" height="123.9" fill="#16a34a"/>
<rect x="187.9" y="75.5" width="36.6" height="100.6" fill="#f59e0b"/>
<rect x="187.9" y="60.0" width="36.6" height="15.5" fill="#dc2626"/>
<text x="206.2" y="316" text-anchor="middle" fill="#374151">W18</text>
<text x="206.2" y="332" text-anchor="middle" fill="#9ca3af" font-size="10">n=62</text>
<rect x="230.5" y="152.3" width="36.6" height="147.7" fill="#16a34a"/>
<rect x="230.5" y="73.8" width="36.6" height="78.5" fill="#f59e0b"/>
<rect x="230.5" y="60.0" width="36.6" height="13.8" fill="#dc2626"/>
<text x="248.8" y="316" text-anchor="middle" fill="#374151">W19</text>
<text x="248.8" y="332" text-anchor="middle" fill="#9ca3af" font-size="10">n=52</text>
<rect x="273.1" y="180.0" width="36.6" height="120.0" fill="#16a34a"/>
<rect x="273.1" y="98.4" width="36.6" height="81.6" fill="#f59e0b"/>
<rect x="273.1" y="60.0" width="36.6" height="38.4" fill="#dc2626"/>
<text x="291.4" y="316" text-anchor="middle" fill="#374151">W20</text>
<text x="291.4" y="332" text-anchor="middle" fill="#9ca3af" font-size="10">n=50</text>
<rect x="315.8" y="137.1" width="36.6" height="162.9" fill="#16a34a"/>
<rect x="315.8" y="64.3" width="36.6" height="72.9" fill="#f59e0b"/>
<rect x="315.8" y="60.0" width="36.6" height="4.3" fill="#dc2626"/>
<text x="334.1" y="316" text-anchor="middle" fill="#374151">W21</text>
<text x="334.1" y="332" text-anchor="middle" fill="#9ca3af" font-size="10">n=56</text>
<rect x="358.4" y="204.0" width="36.6" height="96.0" fill="#16a34a"/>
<rect x="358.4" y="102.7" width="36.6" height="101.3" fill="#f59e0b"/>
<rect x="358.4" y="60.0" width="36.6" height="42.7" fill="#dc2626"/>
<text x="376.7" y="316" text-anchor="middle" fill="#374151">W22</text>
<text x="376.7" y="332" text-anchor="middle" fill="#9ca3af" font-size="10">n=45</text>
<rect x="401.0" y="137.0" width="36.6" height="163.0" fill="#16a34a"/>
<rect x="401.0" y="78.1" width="36.6" height="58.9" fill="#f59e0b"/>
<rect x="401.0" y="60.0" width="36.6" height="18.1" fill="#dc2626"/>
<text x="419.3" y="316" text-anchor="middle" fill="#374151">W23</text>
<text x="419.3" y="332" text-anchor="middle" fill="#9ca3af" font-size="10">n=53</text>
<rect x="443.6" y="152.3" width="36.6" height="147.7" fill="#16a34a"/>
<rect x="443.6" y="78.5" width="36.6" height="73.8" fill="#f59e0b"/>
<rect x="443.6" y="60.0" width="36.6" height="18.5" fill="#dc2626"/>
<text x="461.9" y="316" text-anchor="middle" fill="#374151">W24</text>
<text x="461.9" y="332" text-anchor="middle" fill="#9ca3af" font-size="10">n=52</text>
<rect x="486.2" y="182.3" width="36.6" height="117.7" fill="#16a34a"/>
<rect x="486.2" y="91.7" width="36.6" height="90.6" fill="#f59e0b"/>
<rect x="486.2" y="60.0" width="36.6" height="31.7" fill="#dc2626"/>
<text x="504.6" y="316" text-anchor="middle" fill="#374151">W25</text>
<text x="504.6" y="332" text-anchor="middle" fill="#9ca3af" font-size="10">n=53</text>
<rect x="528.9" y="177.3" width="36.6" height="122.7" fill="#16a34a"/>
<rect x="528.9" y="92.0" width="36.6" height="85.3" fill="#f59e0b"/>
<rect x="528.9" y="60.0" width="36.6" height="32.0" fill="#dc2626"/>
<text x="547.2" y="316" text-anchor="middle" fill="#374151">W26</text>
<text x="547.2" y="332" text-anchor="middle" fill="#9ca3af" font-size="10">n=45</text>
<rect x="571.5" y="174.8" width="36.6" height="125.2" fill="#16a34a"/>
<rect x="571.5" y="96.5" width="36.6" height="78.3" fill="#f59e0b"/>
<rect x="571.5" y="60.0" width="36.6" height="36.5" fill="#dc2626"/>
<text x="589.8" y="316" text-anchor="middle" fill="#374151">W27</text>
<text x="589.8" y="332" text-anchor="middle" fill="#9ca3af" font-size="10">n=46</text>
<rect x="614.1" y="154.1" width="36.6" height="145.9" fill="#16a34a"/>
<rect x="614.1" y="83.5" width="36.6" height="70.6" fill="#f59e0b"/>
<rect x="614.1" y="60.0" width="36.6" height="23.5" fill="#dc2626"/>
<text x="632.4" y="316" text-anchor="middle" fill="#374151">W28</text>
<text x="632.4" y="332" text-anchor="middle" fill="#9ca3af" font-size="10">n=51</text>
<rect x="656.8" y="194.6" width="36.6" height="105.4" fill="#16a34a"/>
<rect x="656.8" y="112.7" width="36.6" height="82.0" fill="#f59e0b"/>
<rect x="656.8" y="60.0" width="36.6" height="52.7" fill="#dc2626"/>
<text x="675.1" y="316" text-anchor="middle" fill="#374151">W29</text>
<text x="675.1" y="332" text-anchor="middle" fill="#9ca3af" font-size="10">n=41</text>
<rect x="699.4" y="210.0" width="36.6" height="90.0" fill="#16a34a"/>
<rect x="699.4" y="114.0" width="36.6" height="96.0" fill="#f59e0b"/>
<rect x="699.4" y="60.0" width="36.6" height="54.0" fill="#dc2626"/>
<text x="717.7" y="316" text-anchor="middle" fill="#374151">W30</text>
<text x="717.7" y="332" text-anchor="middle" fill="#9ca3af" font-size="10">n=40</text>
<line x1="60" y1="300" x2="736" y2="300" stroke="#9ca3af"/>
</svg>
