<svg xmlns="http://www.w3.org/2000/svg" viewBox="0 0 760 320" role="img" aria-label="Mean word count, AI vs. published, per week" font-family="-apple-system, system-ui, sans-serif" font-size="12">
<rect width="760" height="320" fill="#ffffff"/>
<text x="60" y="22" font-weight="600" font-size="14" fill="#111">Mean words per story (AI vs. published)</text>
<line x1="60" y1="42" x2="80" y2="42" stroke="#2563eb" stroke-width="2"/>
<circle cx="70" cy="42" r="3" fill="#2563eb"/>
<text x="88" y="46" fill="#374151">AI</text>
<line x1="134" y1="42" x2="154" y2="42" stroke="#0f172a" stroke-width="2"/>
<circle cx="144" cy="42" r="3" fill="#0f172a"/>
<text x="162" y="46" fill="#374151">published</text>
<line x1="60" y1="260.0" x2="736" y2="260.0" stroke="#e5e7eb"/>
<text x="52" y="264.0" text-anchor="end" fill="#6b7280">0</text>
<line x1="60" y1="210.0" x2="736" y2="210.0" stroke="#e5e7eb"/>
<text x="52" y="214.0" text-anchor="end" fill="#6b7280">20</text>
<line x1="60" y1="160.0" x2="736" y2="160.0" stroke="#e5e7eb"/>
<text x="52" y="164.0" text-anchor="end" fill="#6b7280">40</text>
<line x1="60" y1="110.0" x2="736" y2="110.0" stroke="#e5e7eb"/>
<text x="52" y="114.0" text-anchor="end" fill="#6b7280">60</text>
<line x1="60" y1="60.0" x2="736" y2="60.0" stroke="#e5e7eb"/>
<text x="52" y="64.0" text-anchor="end" fill="#6b7280">80</text>
<text x="60.0" y="276" text-anchor="middle" fill="#374151">W20</text>
<text x="60.0" y="292" text-anchor="middle" fill="#9ca3af" font-size="10">n=50</text>
<text x="105.1" y="276" text-anchor="middle" fill="#374151">W21</text>
<text x="105.1" y="292" text-anchor="middle" fill="#9ca3af" font-size="10">n=56</text>
<text x="150.1" y="276" text-anchor="middle" fill="#374151">W22</text>
<text x="150.1" y="292" text-anchor="middle" fill="#9ca3af" font-size="10">n=45</text>
<text x="195.2" y="276" text-anchor="middle" fill="#374151">W23</text>
<text x="195.2" y="292" text-anchor="middle" fill="#9ca3af" font-size="10">n=53</text>
<text x="240.3" y="276" text-anchor="middle" fill="#374151">W24</text>
<text x="240.3" y="292" text-anchor="middle" fill="#9ca3af" font-size="10">n=52</text>
<text x="285.3" y="276" text-anchor="middle" fill="#374151">W25</text>
<text x="285.3" y="292" text-anchor="middle" fill="#9ca3af" font-size="10">n=53</text>
<text x="330.4" y="276" text-anchor="middle" fill="#374151">W26</text>
<text x="330.4" y="292" text-anchor="middle" fill="#9ca3af" font-size="10">n=45</text>
<text x="375.5" y="276" text-anchor="middle" fill="#374151">W27</text>
<text x="375.5" y="292" text-anchor="middle" fill="#9ca3af" font-size="10">n=46</text>
<text x="420.5" y="276" text-anchor="middle" fill="#374151">W28</text>
<text x="420.5" y="292" text-anchor="middle" fill="#9ca3af" font-size="10">n=51</text>
<text x="465.6" y="276" text-anchor="middle" fill="#374151">W29</text>
<text x="465.6" y="292" text-anchor="middle" fill="#9ca3af" font-size="10">n=41</text>
<text x="510.7" y="276" text-anchor="middle" fill="#374151">W30</text>
<text x="510.7" y="292" text-anchor="middle" fill="#9ca3af" font-size="10">n=40</text>
<text x="555.7" y="276" text-anchor="middle" fill="#374151">W31</text>
<text x="555.7" y="292" text-anchor="middle" fill="#9ca3af" font-size="10">n=45</text>
<text x="600.8" y="276" text-anchor="middle" fill="#374151">W32</text>
<text x="600.8" y="292" text-anchor="middle" fill="#9ca3af" font-size="10">n=39</text>
<text x="645.9" y="276" text-anchor="middle" fill="#374151">W33</text>
<text x="645.9" y="292" text-anchor="middle" fill="#9ca3af" font-size="10">n=37</text>
<text x="690.9" y="276" text-anchor="middle" fill="#374151">W34</text>
<text x="690.9" y="292" text-anchor="middle" fill="#9ca3af" font-size="10">n=41</text>
<text x="736.0" y="276" text-anchor="middle" fill="#374151">W35</text>
<text x="736.0" y="292" text-anchor="middle" fill="#9ca3af" font-size="10">n=48</text>
<polyline points="60.0,101.5 105.1,99.6 150.1,105.5 195.2,104.2 240.3,103.3 285.3,101.9 330.4,109.2 375.5,106.6 420.5,107.3 465.6,101.2 510.7,108.2 555.7,100.6 600.8,106.7 645.9,107.8 690.9,104.8 736.0,102.2" fill="none" stroke="#2563eb" stroke-width="2"/>
<circle cx="60.0" cy="101.5" r="3" fill="#2563eb"/>
<circle cx="105.1" cy="99.6" r="3" fill="#2563eb"/>
<circle cx="150.1" cy="105.5" r="3" fill="#2563eb"/>
<circle cx="195.2" cy="104.2" r="3" fill="#2563eb"/>
<circle cx="240.3" cy="103.3" r="3" fill="#2563eb"/>
<circle cx="285.3" cy="101.9" r="3" fill="#2563eb"/>
<circle cx="330.4" cy="109.2" r="3" fill="#2563eb"/>
<circle cx="375.5" cy="106.6" r="3" fill="#2563eb"/>
<circle cx="420.5" cy="107.3" r="3" fill="#2563eb"/>
<circle cx="465.6" cy="101.2" r="3" fill="#2563eb"/>
<circle cx="510.7" cy="108.2" r="3" fill="#2563eb"/>
<circle cx="555.7" cy="100.6" r="3" fill="#2563eb"/>
<circle cx="600.8" cy="106.7" r="3" fill="#2563eb"/>
<circle cx="645.9" cy="107.8" r="3" fill="#2563eb"/>
<circle cx="690.9" cy="104.8" r="3" fill="#2563eb"/>
<circle cx="736.0" cy="102.2" r="3" fill="#2563eb"/>
<polyline points="60.0,98.3 105.1,98.9 150.1,100.8 195.2,100.7 240.3,100.4 285.3,100.7 330.4,103.6 375.5,104.7 420.5,102.3 465.6,94.1 510.7,94.9 555.7,102.7 600.8,106.1 645.9,109.1 690.9,96.5 736.0,100.8" fill="none" stroke="#0f172a" stroke-width="2"/>
<circle cx="60.0" cy="98.3" r="3" fill="#0f172a"/>
<circle cx="105.1" cy="98.9" r="3" fill="#0f172a"/>
<circle cx="150.1" cy="100.8" r="3" fill="#0f172a"/>
<circle cx="195.2" cy="100.7" r="3" fill="#0f172a"/>
<circle cx="240.3" cy="100.4" r="3" fill="#0f172a"/>
<circle cx="285.3" cy="100.7" r="3" fill="#0f172a"/>
<circle cx="330.4" cy="103.6" r="3" fill="#0f172a"/>
<circle cx="375.5" cy="104.7" r="3" fill="#0f172a"/>
<circle cx="420.5" cy="102.3" r="3" fill="#0f172a"/>
<circle cx="465.6" cy="94.1" r="3" fill="#0f172a"/>
<circle cx="510.7" cy="94.9" r="3" fill="#0f172a"/>
<circle cx="555.7" cy="102.7" r="3" fill="#0f172a"/>
<circle cx="600.8" cy="106.1" r="3" fill="#0f172a"/>
<circle cx="645.9" cy="109.1" r="3" fill="#0f172a"/>
<circle cx="690.9" cy="96.5" r="3" fill="#0f172a"/>
<circle cx="736.0" cy="100.8" r="3" fill="#0f172a"/>
<line x1="60" y1="260" x2="736" y2="260" stroke="#9ca3af"/>
</svg>
